<svg width="25" height="25" viewBox="0 0 25 25" fill="none" xmlns="http://www.w3.org/2000/svg">
<g clip-path="url(#clip0_1522_2829)">
<path fill-rule="evenodd" clip-rule="evenodd" d="M24.3532 12.1463C24.3532 18.8542 18.9147 24.2927 12.2069 24.2927C5.49907 24.2927 0.0605469 18.8542 0.0605469 12.1463C0.0605469 5.43852 5.49907 0 12.2069 0C18.9147 0 24.3532 5.43852 24.3532 12.1463ZM12.6421 8.96704C11.4609 9.45795 9.09945 10.4752 5.55879 12.0178C4.98386 12.2465 4.68223 12.4702 4.6549 12.6889C4.60834 13.0593 5.07192 13.2051 5.70151 13.4025C5.78755 13.4298 5.87662 13.4571 5.96772 13.4875C6.58819 13.6889 7.42224 13.9248 7.85546 13.9339C8.24921 13.942 8.6885 13.78 9.17334 13.448C12.4812 11.2141 14.1888 10.0855 14.2961 10.0612C14.372 10.044 14.4772 10.0217 14.5481 10.0855C14.6189 10.1483 14.6119 10.2677 14.6048 10.3001C14.5582 10.4955 12.7423 12.1848 11.801 13.0593C11.5075 13.3316 11.3 13.525 11.2574 13.5695C11.1623 13.6677 11.0651 13.7618 10.972 13.8519C10.3951 14.4066 9.96386 14.8236 10.9963 15.5038C11.4923 15.8307 11.8891 16.101 12.2848 16.3702C12.717 16.6648 13.1482 16.9583 13.707 17.3247C13.8487 17.4179 13.9843 17.514 14.1169 17.6081C14.62 17.9675 15.0724 18.2894 15.6311 18.2387C15.955 18.2084 16.2911 17.9037 16.4611 16.9937C16.863 14.8418 17.6545 10.1817 17.8377 8.26052C17.8489 8.10102 17.8421 7.94076 17.8175 7.78277C17.8028 7.65516 17.7406 7.53775 17.6434 7.4538C17.4986 7.33538 17.2739 7.31007 17.1727 7.3121C16.7162 7.3202 16.0158 7.56413 12.6421 8.96704Z" fill="white"/>
</g>
<defs>
<clipPath id="clip0_1522_2829">
<rect width="24.2927" height="24.2927" fill="white" transform="translate(0.0605469)"/>
</clipPath>
</defs>
</svg>
