<svg width="25" height="25" viewBox="0 0 25 25" fill="none" xmlns="http://www.w3.org/2000/svg">
<g clip-path="url(#clip0_1522_2832)">
<path d="M22.8294 5.61754C19.1956 -0.000185702 11.7764 -1.67032 6.02271 1.82178C0.42046 5.31388 -1.39648 12.9054 2.2374 18.5231L2.54023 18.9786L1.32893 23.5335L5.87129 22.3189L6.32553 22.6225C8.29389 23.6854 10.4137 24.2927 12.5334 24.2927C14.8046 24.2927 17.0758 23.6854 19.0441 22.4707C24.6464 18.8268 26.3119 11.3871 22.8294 5.61754ZM19.6498 17.3085C19.0441 18.2195 18.2871 18.8268 17.2272 18.9786C16.6215 18.9786 15.8645 19.2823 12.8362 18.0676C10.2622 16.853 8.14247 14.8792 6.62835 12.6017C5.71988 11.5389 5.26565 10.1725 5.11423 8.80598C5.11423 7.59134 5.56847 6.52852 6.32553 5.76937C6.62835 5.46571 6.93118 5.31388 7.234 5.31388H7.99106C8.29389 5.31388 8.59671 5.31388 8.74812 5.9212C9.05095 6.68035 9.80801 8.50232 9.80801 8.65415C9.95942 8.80598 9.95942 9.10964 9.80801 9.26147C9.95942 9.56513 9.80801 9.86879 9.65659 10.0206C9.50518 10.1725 9.35377 10.4761 9.20236 10.6279C8.89953 10.7798 8.74812 11.0834 8.89953 11.3871C9.50518 12.2981 10.2622 13.2091 11.0193 13.9682C11.9278 14.7274 12.8362 15.3347 13.8961 15.7902C14.199 15.942 14.5018 15.942 14.6532 15.6383C14.8046 15.3347 15.5617 14.5755 15.8645 14.2719C16.1673 13.9682 16.3187 13.9682 16.6215 14.12L19.0441 15.3347C19.347 15.4865 19.6498 15.6383 19.8012 15.7902C19.9526 16.2457 19.9526 16.853 19.6498 17.3085Z" fill="white"/>
</g>
<defs>
<clipPath id="clip0_1522_2832">
<rect width="24.2927" height="24.2927" fill="white" transform="translate(0.353516)"/>
</clipPath>
</defs>
</svg>
