<svg width="24" height="17" viewBox="0 0 24 17" fill="none" xmlns="http://www.w3.org/2000/svg">
<path d="M12.5186 0.444336H12.6472C13.8346 0.448607 19.8511 0.491315 21.4733 0.921247C21.9637 1.05246 22.4106 1.30822 22.7693 1.66296C23.128 2.01771 23.3859 2.45901 23.5173 2.94278C23.6632 3.48375 23.7658 4.19983 23.8351 4.93869L23.8496 5.08674L23.8813 5.45688L23.8929 5.60494C23.9868 6.90612 23.9983 8.12473 23.9998 8.39095V8.49772C23.9983 8.7739 23.9853 10.0751 23.8813 11.4304L23.8698 11.5798L23.8568 11.7279C23.7845 12.5422 23.6777 13.3508 23.5173 13.9459C23.3863 14.4299 23.1285 14.8714 22.7697 15.2262C22.411 15.581 21.9639 15.8366 21.4733 15.9674C19.7976 16.4116 13.4287 16.4429 12.5461 16.4443H12.3409C11.8946 16.4443 10.0485 16.4358 8.11279 16.3703L7.86722 16.3618L7.74154 16.3561L7.49453 16.3461L7.24751 16.3361C5.64408 16.2664 4.11721 16.1539 3.41372 15.966C2.92328 15.8353 2.47631 15.5799 2.11757 15.2254C1.75884 14.8708 1.50093 14.4296 1.3697 13.9459C1.20936 13.3522 1.10246 12.5422 1.03024 11.7279L1.01868 11.5784L1.00712 11.4304C0.935832 10.4657 0.896328 9.49906 0.888672 8.53189L0.888672 8.35678C0.891561 8.05071 0.903117 6.99296 0.981122 5.8256L0.991234 5.67897L0.995567 5.60494L1.00712 5.45688L1.0389 5.08674L1.05335 4.93869C1.12269 4.19983 1.22525 3.48233 1.37115 2.94278C1.50216 2.45882 1.75996 2.0173 2.11871 1.6625C2.47746 1.30769 2.92456 1.05207 3.41516 0.921247C4.11865 0.736177 5.64552 0.622288 7.24896 0.551107L7.49453 0.541142L7.74299 0.5326L7.86722 0.528329L8.11423 0.518364C9.48901 0.474765 10.8643 0.450561 12.2398 0.44576H12.5186V0.444336ZM10.1337 5.01414V11.8731L16.1386 8.44505L10.1337 5.01414Z" fill="white"/>
</svg>
