<svg width="12" height="21" viewBox="0 0 12 21" fill="none" xmlns="http://www.w3.org/2000/svg">
<path d="M9.42621 11.4243H8.02165C5.81565 11.4243 3.67634 10.0803 3.67634 6.72013C3.67634 3.21957 5.68177 1.79187 7.72076 1.79187H9.42619V11.4243H9.42621ZM11.6322 0H7.82106C4.07774 0 0.901924 2.38001 0.901924 7.00018C0.901924 9.77222 2.44014 11.8161 5.18029 12.8241L0.0668798 20.5523C-0.100129 20.8044 0.0668798 21 0.333503 21H2.70674C2.90733 21 3.04119 20.9441 3.1079 20.8044L7.7541 13.216H9.42617V20.8044C9.42617 20.8882 9.52647 21 9.65921 21H11.7325C11.9331 21 12 20.9161 12 20.7766V0.280224C12 0.083748 11.8661 0 11.6322 0" fill="white"/>
</svg>
