<svg width="24" height="15" viewBox="0 0 24 15" fill="none" xmlns="http://www.w3.org/2000/svg">
<path fill-rule="evenodd" clip-rule="evenodd" d="M21.3625 10.3025C21.3625 10.3025 23.3029 12.2889 23.7829 13.2081C23.7923 13.2214 23.7996 13.2361 23.8045 13.2517C24.0001 13.5912 24.0481 13.8574 23.9521 14.054C23.7901 14.3786 23.2417 14.5415 23.0557 14.5552H19.6261C19.3873 14.5552 18.8905 14.4905 18.2857 14.0577C17.8237 13.7231 17.3641 13.1721 16.9189 12.6335C16.2541 11.8337 15.6793 11.1396 15.0973 11.1396C15.0238 11.1394 14.9508 11.1521 14.8813 11.1769C14.4409 11.3212 13.8817 11.9717 13.8817 13.7044C13.8817 14.2468 13.4689 14.5552 13.1797 14.5552H11.6089C11.0737 14.5552 8.28732 14.3612 5.81651 11.6608C2.78891 8.35462 0.0697081 1.72239 0.0433081 1.66393C-0.125892 1.2348 0.229308 1.00096 0.613309 1.00096H4.07651C4.54091 1.00096 4.69211 1.29202 4.79771 1.55323C4.92011 1.853 5.37371 3.05207 6.11771 4.39917C7.32252 6.59084 8.06292 7.48268 8.65452 7.48268C8.76566 7.48302 8.87493 7.45298 8.97132 7.39561C9.74412 6.95528 9.60012 4.09442 9.56412 3.50483C9.56412 3.3904 9.56292 2.2274 9.16692 1.66518C8.88372 1.26217 8.40132 1.10544 8.10972 1.04822C8.18772 0.931301 8.35332 0.752186 8.56572 0.646459C9.09492 0.372811 10.0513 0.333008 11.0005 0.333008H11.5273C12.5569 0.347934 12.8233 0.416346 13.1977 0.51461C13.9513 0.701188 13.9657 1.20744 13.8997 2.93142C13.8805 3.42398 13.8601 3.97874 13.8601 4.63177C13.8601 4.77108 13.8541 4.92656 13.8541 5.08453C13.8313 5.96891 13.8013 6.96524 14.4037 7.37446C14.4819 7.42491 14.5721 7.45163 14.6641 7.45158C14.8729 7.45158 15.4981 7.45158 17.1937 4.43524C17.9377 3.10307 18.5137 1.53208 18.5533 1.41392C18.5869 1.34799 18.6877 1.16266 18.8101 1.08803C18.8972 1.04001 18.9947 1.01602 19.0933 1.01837H23.1673C23.6113 1.01837 23.9125 1.08803 23.9713 1.26217C24.0697 1.54452 23.9521 2.40651 22.0921 5.01363C21.7789 5.44773 21.5041 5.82338 21.2629 6.15176C19.5769 8.44542 19.5769 8.5611 21.3625 10.3025V10.3025Z" fill="white"/>
</svg>
