<svg width="12" height="21" viewBox="0 0 12 21" fill="none" xmlns="http://www.w3.org/2000/svg">
<path d="M5.98565 10.8582C3.05039 10.8582 0.610748 8.39485 0.610748 5.48002C0.610748 2.46438 3.05039 0 5.98669 0C9.02274 0 11.3616 2.46333 11.3616 5.48002C11.3564 6.91124 10.789 8.2818 9.78428 9.29049C8.77953 10.2992 7.41957 10.8634 6.00332 10.8592L5.98565 10.8582V10.8582ZM5.98565 3.16789C4.74297 3.16789 3.79746 4.22315 3.79746 5.48107C3.79746 6.73688 4.74297 7.6924 5.98669 7.6924C7.28029 7.6924 8.17593 6.73688 8.17593 5.48107C8.17697 4.2221 7.28029 3.16789 5.98565 3.16789ZM8.12606 15.3333L11.1631 18.2996C11.7606 18.9517 11.7606 19.9072 11.1631 20.511C10.5169 21.163 9.52044 21.163 9.02274 20.511L5.98669 17.4943L3.05039 20.511C2.75219 20.8123 2.3532 20.9625 1.90434 20.9625C1.55627 20.9625 1.15832 20.8113 0.809203 20.511C0.21176 19.9072 0.21176 18.9517 0.809203 18.2986L3.89512 15.3323C2.78069 14.9988 1.71164 14.5265 0.712572 13.9263C-0.0344908 13.5242 -0.183072 12.5193 0.214877 11.7643C0.712573 11.0104 1.60822 10.8099 2.40515 11.3128C3.48429 11.9784 4.72404 12.3304 5.98825 12.3304C7.25246 12.3304 8.49222 11.9784 9.57135 11.3128C10.3683 10.8099 11.3128 11.0104 11.7606 11.7643C12.2094 12.5193 12.0089 13.5231 11.3117 13.9263C10.3672 14.5301 9.27211 14.9826 8.1271 15.3344L8.12606 15.3333V15.3333Z" fill="white"/>
</svg>
