<svg width="25" height="25" viewBox="0 0 25 25" fill="none" xmlns="http://www.w3.org/2000/svg">
<g clip-path="url(#clip0_1522_2834)">
<path d="M17.2173 11.4227C17.2319 9.61042 15.7367 7.9488 13.8844 7.71923L13.7629 7.70101C13.6701 7.68257 13.5758 7.67201 13.4811 7.66943C13.101 7.66943 13.0001 7.94394 12.9734 8.10792C12.9583 8.17602 12.9569 8.24646 12.9694 8.3151C12.9819 8.38373 13.0081 8.44917 13.0463 8.50753C13.1726 8.68365 13.3937 8.71402 13.571 8.74074C13.6232 8.74803 13.673 8.7541 13.7131 8.76503C15.3784 9.14764 15.9396 9.75132 16.2128 11.4554C16.2201 11.498 16.2226 11.549 16.225 11.6036C16.2371 11.8065 16.2626 12.2304 16.7048 12.2304C16.7412 12.2304 16.7801 12.228 16.8214 12.2207C17.2331 12.1563 17.2198 11.7688 17.2137 11.583C17.2106 11.5381 17.2106 11.493 17.2137 11.4482C17.215 11.4401 17.2159 11.432 17.2161 11.4239L17.2173 11.4227Z" fill="#6D6D6D"/>
<path fill-rule="evenodd" clip-rule="evenodd" d="M12.7918 0C6.08361 0 0.645508 5.4381 0.645508 12.1463C0.645508 18.8546 6.08361 24.2927 12.7918 24.2927C19.5001 24.2927 24.9382 18.8546 24.9382 12.1463C24.9382 5.4381 19.5001 0 12.7918 0ZM13.3747 7.05338L13.3747 7.05338C13.1706 7.0388 12.7467 7.00601 12.771 6.55295C12.782 6.35618 12.867 6.02822 13.3152 6.02822C13.3638 6.02865 13.4125 6.03108 13.4609 6.03551L13.4653 6.03581C13.5002 6.03813 13.5337 6.04037 13.5605 6.04037C13.5715 6.04035 13.5825 6.03954 13.5933 6.03794L13.6273 6.03673C16.4429 6.1339 18.8818 8.77208 18.8478 11.6811C18.8466 11.7192 18.849 11.7632 18.8513 11.8084L18.8515 11.8111C18.86 12.0054 18.8697 12.2447 18.7203 12.4063C18.6742 12.4537 18.6184 12.4906 18.5569 12.5147C18.4953 12.5388 18.4292 12.5495 18.3632 12.546H18.3486C17.8679 12.5362 17.8603 12.0752 17.8567 11.8528L17.8567 11.8524C17.8565 11.8427 17.8564 11.8331 17.8562 11.8236C17.8553 11.7715 17.8545 11.7234 17.8494 11.6823C17.5008 8.83767 16.2424 7.50158 13.5095 7.06674C13.4719 7.06067 13.4233 7.05702 13.3747 7.05338ZM17.5433 15.2181C17.6006 15.2654 17.6585 15.312 17.717 15.3578V15.359L17.7171 15.3591C18.1568 15.7053 18.7045 16.1365 18.4045 17.0109C18.062 18.0094 16.9482 18.8839 16.0202 18.8839H16.0044C15.9879 18.8836 15.9716 18.8812 15.9558 18.8766L15.8404 18.8475L15.831 18.8453C15.6958 18.8139 15.5133 18.7716 15.34 18.6944C13.3674 17.8175 11.6645 16.6514 10.2798 15.2267C8.86355 13.7715 7.74244 12.0079 6.94442 9.98429C6.66749 9.28466 6.65534 8.61297 6.91041 8.03966C7.17399 7.44813 7.70235 6.99872 8.43721 6.74364C8.71085 6.64216 9.01196 6.64302 9.28502 6.74607C9.92514 6.989 11.4446 9.12676 11.4811 9.83732C11.5139 10.4629 11.0475 10.7896 10.7972 10.9645C10.3551 11.2742 10.275 11.6532 10.5252 12.2362C11.0438 13.4387 11.9511 14.3497 13.2204 14.9449C13.3537 15.0123 13.5 15.0501 13.6492 15.0554C13.863 15.0554 14.0379 14.9461 14.1812 14.7226C14.5055 14.2161 14.8978 13.9586 15.3473 13.9586C15.6813 13.9586 16.0347 14.0983 16.4283 14.3825C16.4922 14.4287 16.5562 14.4749 16.6202 14.5209L16.6591 14.5491C16.9532 14.7614 17.2572 14.9809 17.5433 15.2181ZM13.1791 9.72436C13.2957 9.37697 13.6273 9.36847 13.7852 9.36483C14.2067 9.35389 14.6695 9.58103 15.0533 9.98429C15.4359 10.3851 15.6606 10.888 15.6558 11.3325C15.6691 11.7577 15.5197 11.9921 15.21 12.0309C15.1906 12.033 15.1712 12.0338 15.1517 12.0334C14.8942 12.0334 14.6938 11.8196 14.6634 11.5111C14.6003 10.8528 14.2796 10.4969 13.6577 10.3936C13.4864 10.3657 13.297 10.3135 13.1986 10.1434C13.1318 10.028 13.1257 9.88712 13.1791 9.72436Z" fill="white"/>
</g>
<defs>
<clipPath id="clip0_1522_2834">
<rect width="24.2927" height="24.2927" fill="white" transform="translate(0.645508)"/>
</clipPath>
</defs>
</svg>
